<mxfile host="app.diagrams.net" agent="Mozilla/5.0 (Windows NT 10.0; Win64; x64) AppleWebKit/537.36 (KHTML, like Gecko) Chrome/139.0.0.0 Safari/537.36" version="28.1.2">
  <diagram name="PÃ¡gina-1" id="JQLxpjKAQIQu0oGHXZzm">
    <mxGraphModel dx="1642" dy="1594" grid="1" gridSize="10" guides="1" tooltips="1" connect="1" arrows="1" fold="1" page="1" pageScale="1" pageWidth="827" pageHeight="1169" math="0" shadow="0">
      <root>
        <mxCell id="0" />
        <mxCell id="1" parent="0" />
        <mxCell id="OCdT8v1u_GvfzzxBTpSO-2" value="usuario" style="swimlane;fontStyle=0;childLayout=stackLayout;horizontal=1;startSize=30;horizontalStack=0;resizeParent=1;resizeParentMax=0;resizeLast=0;collapsible=1;marginBottom=0;whiteSpace=wrap;html=1;" vertex="1" parent="1">
          <mxGeometry x="440" y="630" width="140" height="140" as="geometry" />
        </mxCell>
        <mxCell id="OCdT8v1u_GvfzzxBTpSO-3" value="id_usuario&lt;div&gt;nombre&lt;/div&gt;&lt;div&gt;apellido&lt;/div&gt;&lt;div&gt;dni&lt;/div&gt;&lt;div&gt;&lt;br&gt;&lt;/div&gt;" style="text;strokeColor=none;fillColor=none;align=left;verticalAlign=middle;spacingLeft=4;spacingRight=4;overflow=hidden;points=[[0,0.5],[1,0.5]];portConstraint=eastwest;rotatable=0;whiteSpace=wrap;html=1;" vertex="1" parent="OCdT8v1u_GvfzzxBTpSO-2">
          <mxGeometry y="30" width="140" height="110" as="geometry" />
        </mxCell>
        <mxCell id="OCdT8v1u_GvfzzxBTpSO-6" value="compra" style="swimlane;fontStyle=0;childLayout=stackLayout;horizontal=1;startSize=30;horizontalStack=0;resizeParent=1;resizeParentMax=0;resizeLast=0;collapsible=1;marginBottom=0;whiteSpace=wrap;html=1;" vertex="1" parent="1">
          <mxGeometry x="560" y="820" width="140" height="130" as="geometry" />
        </mxCell>
        <mxCell id="OCdT8v1u_GvfzzxBTpSO-7" value="id_compra&lt;div&gt;fecha&lt;/div&gt;&lt;div&gt;id_usuario&lt;/div&gt;" style="text;strokeColor=none;fillColor=none;align=left;verticalAlign=middle;spacingLeft=4;spacingRight=4;overflow=hidden;points=[[0,0.5],[1,0.5]];portConstraint=eastwest;rotatable=0;whiteSpace=wrap;html=1;" vertex="1" parent="OCdT8v1u_GvfzzxBTpSO-6">
          <mxGeometry y="30" width="140" height="100" as="geometry" />
        </mxCell>
        <mxCell id="OCdT8v1u_GvfzzxBTpSO-10" value="producto" style="swimlane;fontStyle=0;childLayout=stackLayout;horizontal=1;startSize=30;horizontalStack=0;resizeParent=1;resizeParentMax=0;resizeLast=0;collapsible=1;marginBottom=0;whiteSpace=wrap;html=1;" vertex="1" parent="1">
          <mxGeometry x="320" y="820" width="140" height="120" as="geometry" />
        </mxCell>
        <mxCell id="OCdT8v1u_GvfzzxBTpSO-11" value="id_producto&lt;br&gt;nombre&lt;br&gt;precio" style="text;strokeColor=none;fillColor=none;align=left;verticalAlign=middle;spacingLeft=4;spacingRight=4;overflow=hidden;points=[[0,0.5],[1,0.5]];portConstraint=eastwest;rotatable=0;whiteSpace=wrap;html=1;" vertex="1" parent="OCdT8v1u_GvfzzxBTpSO-10">
          <mxGeometry y="30" width="140" height="90" as="geometry" />
        </mxCell>
        <mxCell id="OCdT8v1u_GvfzzxBTpSO-14" value="DetalleCompra" style="swimlane;fontStyle=0;childLayout=stackLayout;horizontal=1;startSize=30;horizontalStack=0;resizeParent=1;resizeParentMax=0;resizeLast=0;collapsible=1;marginBottom=0;whiteSpace=wrap;html=1;" vertex="1" parent="1">
          <mxGeometry x="430" y="990" width="140" height="130" as="geometry" />
        </mxCell>
        <mxCell id="OCdT8v1u_GvfzzxBTpSO-15" value="id_detalle&lt;br&gt;id_persona&lt;div&gt;id_producto&lt;/div&gt;&lt;div&gt;cantidad&lt;/div&gt;&lt;div&gt;total&lt;/div&gt;" style="text;strokeColor=none;fillColor=none;align=left;verticalAlign=middle;spacingLeft=4;spacingRight=4;overflow=hidden;points=[[0,0.5],[1,0.5]];portConstraint=eastwest;rotatable=0;whiteSpace=wrap;html=1;" vertex="1" parent="OCdT8v1u_GvfzzxBTpSO-14">
          <mxGeometry y="30" width="140" height="100" as="geometry" />
        </mxCell>
        <mxCell id="OCdT8v1u_GvfzzxBTpSO-19" value="sucursal" style="swimlane;fontStyle=0;childLayout=stackLayout;horizontal=1;startSize=30;horizontalStack=0;resizeParent=1;resizeParentMax=0;resizeLast=0;collapsible=1;marginBottom=0;whiteSpace=wrap;html=1;" vertex="1" parent="1">
          <mxGeometry x="80" y="820" width="140" height="120" as="geometry" />
        </mxCell>
        <mxCell id="OCdT8v1u_GvfzzxBTpSO-20" value="Item 1" style="text;strokeColor=none;fillColor=none;align=left;verticalAlign=middle;spacingLeft=4;spacingRight=4;overflow=hidden;points=[[0,0.5],[1,0.5]];portConstraint=eastwest;rotatable=0;whiteSpace=wrap;html=1;" vertex="1" parent="OCdT8v1u_GvfzzxBTpSO-19">
          <mxGeometry y="30" width="140" height="30" as="geometry" />
        </mxCell>
        <mxCell id="OCdT8v1u_GvfzzxBTpSO-21" value="Item 2" style="text;strokeColor=none;fillColor=none;align=left;verticalAlign=middle;spacingLeft=4;spacingRight=4;overflow=hidden;points=[[0,0.5],[1,0.5]];portConstraint=eastwest;rotatable=0;whiteSpace=wrap;html=1;" vertex="1" parent="OCdT8v1u_GvfzzxBTpSO-19">
          <mxGeometry y="60" width="140" height="30" as="geometry" />
        </mxCell>
        <mxCell id="OCdT8v1u_GvfzzxBTpSO-22" value="Item 3" style="text;strokeColor=none;fillColor=none;align=left;verticalAlign=middle;spacingLeft=4;spacingRight=4;overflow=hidden;points=[[0,0.5],[1,0.5]];portConstraint=eastwest;rotatable=0;whiteSpace=wrap;html=1;" vertex="1" parent="OCdT8v1u_GvfzzxBTpSO-19">
          <mxGeometry y="90" width="140" height="30" as="geometry" />
        </mxCell>
        <mxCell id="OCdT8v1u_GvfzzxBTpSO-28" value="id_usuario&lt;div&gt;nombre&lt;/div&gt;&lt;div&gt;apellido&lt;/div&gt;&lt;div&gt;dni&lt;/div&gt;&lt;div&gt;&lt;br&gt;&lt;/div&gt;" style="text;strokeColor=none;fillColor=none;align=left;verticalAlign=middle;spacingLeft=4;spacingRight=4;overflow=hidden;points=[[0,0.5],[1,0.5]];portConstraint=eastwest;rotatable=0;whiteSpace=wrap;html=1;" vertex="1" parent="1">
          <mxGeometry x="1930" y="330" width="140" height="110" as="geometry" />
        </mxCell>
        <mxCell id="OCdT8v1u_GvfzzxBTpSO-29" value="id_usuario&lt;div&gt;nombre&lt;/div&gt;&lt;div&gt;apellido&lt;/div&gt;&lt;div&gt;dni&lt;/div&gt;&lt;div&gt;&lt;br&gt;&lt;/div&gt;" style="text;strokeColor=none;fillColor=none;align=left;verticalAlign=middle;spacingLeft=4;spacingRight=4;overflow=hidden;points=[[0,0.5],[1,0.5]];portConstraint=eastwest;rotatable=0;whiteSpace=wrap;html=1;" vertex="1" parent="1">
          <mxGeometry x="220" y="1830" width="130" height="110" as="geometry" />
        </mxCell>
        <mxCell id="OCdT8v1u_GvfzzxBTpSO-30" value="id_usuario&lt;div&gt;nombre&lt;/div&gt;&lt;div&gt;apellido&lt;/div&gt;&lt;div&gt;dni&lt;/div&gt;&lt;div&gt;&lt;br&gt;&lt;/div&gt;" style="text;strokeColor=none;fillColor=none;align=left;verticalAlign=middle;spacingLeft=4;spacingRight=4;overflow=hidden;points=[[0,0.5],[1,0.5]];portConstraint=eastwest;rotatable=0;whiteSpace=wrap;html=1;" vertex="1" parent="1">
          <mxGeometry x="-590" y="790" width="140" height="110" as="geometry" />
        </mxCell>
        <mxCell id="OCdT8v1u_GvfzzxBTpSO-31" value="id_usuario&lt;div&gt;nombre&lt;/div&gt;&lt;div&gt;apellido&lt;/div&gt;&lt;div&gt;dni&lt;/div&gt;&lt;div&gt;&lt;br&gt;&lt;/div&gt;" style="text;strokeColor=none;fillColor=none;align=left;verticalAlign=middle;spacingLeft=4;spacingRight=4;overflow=hidden;points=[[0,0.5],[1,0.5]];portConstraint=eastwest;rotatable=0;whiteSpace=wrap;html=1;" vertex="1" parent="1">
          <mxGeometry x="350" y="-40" width="140" height="110" as="geometry" />
        </mxCell>
      </root>
    </mxGraphModel>
  </diagram>
</mxfile>
